<svg width="310" height="228" viewBox="0 0 310 228" fill="none" xmlns="http://www.w3.org/2000/svg">
<path fill-rule="evenodd" clip-rule="evenodd" d="M218.264 34.6065C204.569 13.7624 180.979 0 154.175 0C127.519 0 104.042 13.6102 90.3147 34.2604C59.1095 43.9551 36.4496 73.0569 36.4496 107.451C36.4496 110.698 36.6516 113.898 37.0436 117.039C28.1664 115.866 19.0847 113.993 12.1352 112.39C6.00697 110.976 0 115.581 0 121.87V123.489C0 127.578 2.62158 131.196 6.57196 132.252C14.2335 134.3 27.7926 137.381 42.926 138.331C45.3298 143.784 48.3508 148.904 51.9004 153.602C53.2122 194.772 87.0002 227.745 128.489 227.745C137.499 227.745 146.145 226.19 154.175 223.334C162.204 226.19 170.851 227.745 179.86 227.745C221.75 227.745 255.789 194.132 256.478 152.407C259.637 148.052 262.35 143.352 264.548 138.375C280.191 137.474 294.564 134.293 302.597 132.213C306.599 131.176 309.271 127.53 309.271 123.396V121.853C309.271 115.569 303.275 110.964 297.15 112.367C289.755 114.062 279.926 116.064 270.427 117.223C270.834 114.023 271.044 110.761 271.044 107.451C271.044 73.4568 248.908 44.6327 218.264 34.6065Z" fill="#E6E6E6"/>
<circle cx="132.588" cy="120.188" r="5.56519" fill="black"/>
<circle cx="173.685" cy="120.188" r="5.56519" fill="black"/>
<path d="M161.962 126.61C164.171 126.61 166.021 128.443 165.344 130.545C165.238 130.876 165.118 131.203 164.985 131.525C164.339 133.083 163.393 134.498 162.201 135.691C161.008 136.884 159.592 137.83 158.034 138.475C156.476 139.12 154.806 139.453 153.119 139.453C151.433 139.453 149.763 139.12 148.205 138.475C146.646 137.83 145.231 136.884 144.038 135.691C142.846 134.498 141.9 133.083 141.254 131.525C141.121 131.203 141.001 130.876 140.895 130.545C140.218 128.443 142.067 126.61 144.277 126.61L153.119 126.61H161.962Z" fill="black"/>
</svg>
