<svg width="260" height="252" viewBox="0 0 260 252" fill="none" xmlns="http://www.w3.org/2000/svg">
<mask id="mask0_484_1824" style="mask-type:alpha" maskUnits="userSpaceOnUse" x="-1" y="0" width="261" height="252">
<path fill-rule="evenodd" clip-rule="evenodd" d="M201.026 38.2633C185.884 15.2166 159.802 0 130.165 0C100.693 0 74.7351 15.0484 59.5567 37.8807C25.0541 48.5998 -0.000244141 80.7767 -0.000244141 118.805C-0.000244141 137.965 6.35954 155.639 17.0832 169.833C18.5336 215.353 55.8919 251.81 101.765 251.81C111.727 251.81 121.287 250.091 130.165 246.933C139.043 250.091 148.603 251.81 158.564 251.81C204.88 251.81 242.516 214.646 243.278 168.511C253.409 154.549 259.383 137.375 259.383 118.805C259.383 81.2189 234.908 49.3489 201.026 38.2633Z" fill="#D9D9D9"/>
</mask>
<g mask="url(#mask0_484_1824)">
<rect x="-68.1595" y="-35.9727" width="369.195" height="323.756" fill="#C4C4C4"/>
</g>
<circle cx="86.6186" cy="104.606" r="6.15326" fill="#383838"/>
<circle cx="132.058" cy="104.606" r="6.15326" fill="#383838"/>
<path d="M116.225 111.705C118.434 111.705 120.28 113.531 119.665 115.653C119.52 116.157 119.346 116.653 119.144 117.139C118.431 118.862 117.385 120.428 116.066 121.746C114.747 123.065 113.182 124.111 111.459 124.824C109.736 125.538 107.89 125.905 106.025 125.905C104.161 125.905 102.314 125.538 100.591 124.824C98.8684 124.111 97.303 123.065 95.9845 121.746C94.6659 120.428 93.6199 118.862 92.9063 117.139C92.7048 116.653 92.5309 116.157 92.3851 115.653C91.771 113.531 93.6163 111.705 95.8254 111.705L106.025 111.705H116.225Z" fill="#383838"/>
</svg>
