<svg width="390" height="308" viewBox="0 0 390 308" fill="none" xmlns="http://www.w3.org/2000/svg">
<g filter="url(#filter0_d_745_933)">
<path fill-rule="evenodd" clip-rule="evenodd" d="M258.264 68.6065C244.569 47.7624 220.979 34 194.175 34C167.519 34 144.042 47.6102 130.315 68.2604C99.1095 77.9551 76.4496 107.057 76.4496 141.451C76.4496 144.698 76.6516 147.898 77.0436 151.039C68.1664 149.866 59.0847 147.993 52.1352 146.39C46.007 144.976 40 149.581 40 155.87V157.489C40 161.578 42.6216 165.196 46.572 166.252C54.2335 168.3 67.7926 171.381 82.926 172.331C85.3298 177.784 88.3508 182.904 91.9004 187.602C93.2122 228.772 127 261.745 168.489 261.745C177.499 261.745 186.145 260.19 194.175 257.334C202.204 260.19 210.851 261.745 219.86 261.745C261.75 261.745 295.789 228.132 296.478 186.407C299.637 182.052 302.35 177.352 304.548 172.375C320.191 171.474 334.564 168.293 342.597 166.213C346.599 165.176 349.271 161.53 349.271 157.396V155.853C349.271 149.569 343.275 144.964 337.15 146.367C329.755 148.062 319.926 150.064 310.427 151.223C310.834 148.023 311.044 144.761 311.044 141.451C311.044 107.457 288.908 78.6327 258.264 68.6065Z" fill="white"/>
</g>
<circle cx="172.588" cy="154.188" r="5.56519" fill="black"/>
<circle cx="213.685" cy="154.188" r="5.56519" fill="black"/>
<path d="M201.962 160.61C204.171 160.61 206.021 162.443 205.344 164.545C205.238 164.876 205.118 165.203 204.985 165.525C204.339 167.083 203.393 168.498 202.201 169.691C201.008 170.884 199.592 171.83 198.034 172.475C196.476 173.12 194.806 173.453 193.119 173.453C191.433 173.453 189.763 173.12 188.205 172.475C186.646 171.83 185.231 170.884 184.038 169.691C182.846 168.498 181.9 167.083 181.254 165.525C181.121 165.203 181.001 164.876 180.895 164.545C180.218 162.443 182.067 160.61 184.277 160.61L193.119 160.61H201.962Z" fill="black"/>
<defs>
<filter id="filter0_d_745_933" x="0" y="0" width="389.271" height="307.745" filterUnits="userSpaceOnUse" color-interpolation-filters="sRGB">
<feFlood flood-opacity="0" result="BackgroundImageFix"/>
<feColorMatrix in="SourceAlpha" type="matrix" values="0 0 0 0 0 0 0 0 0 0 0 0 0 0 0 0 0 0 127 0" result="hardAlpha"/>
<feOffset dy="6"/>
<feGaussianBlur stdDeviation="20"/>
<feComposite in2="hardAlpha" operator="out"/>
<feColorMatrix type="matrix" values="0 0 0 0 0.504167 0 0 0 0 0.504167 0 0 0 0 0.504167 0 0 0 0.25 0"/>
<feBlend mode="normal" in2="BackgroundImageFix" result="effect1_dropShadow_745_933"/>
<feBlend mode="normal" in="SourceGraphic" in2="effect1_dropShadow_745_933" result="shape"/>
</filter>
</defs>
</svg>
