<svg width="30" height="30" viewBox="0 0 30 30" fill="none" xmlns="http://www.w3.org/2000/svg">
<path fill-rule="evenodd" clip-rule="evenodd" d="M22.7403 4.10645C21.0676 1.62901 18.2339 0 15.0197 0C11.8106 0 8.98076 1.62383 7.30704 4.09465C3.128 5.04512 0 8.90929 0 13.5317C0 15.8375 0.778374 17.9546 2.07731 19.6156C2.07431 19.7126 2.07281 19.81 2.07281 19.9077C2.07281 25.0489 6.24056 29.2167 11.3817 29.2167C12.665 29.2167 13.8876 28.957 14.9999 28.4874C16.1122 28.957 17.3348 29.2167 18.618 29.2167C23.7592 29.2167 27.9269 25.0489 27.9269 19.9077C27.9269 19.8308 27.926 19.7542 27.9242 19.6777C29.2224 18.0103 30.0002 15.8852 30.0002 13.5708C30.0002 8.94714 26.8957 5.07907 22.7403 4.10645Z" fill="#A5A5A5"/>
</svg>
