<svg width="15" height="15" viewBox="0 0 15 15" fill="none" xmlns="http://www.w3.org/2000/svg">
<path d="M3.9248 7.80273C3.78809 7.80273 3.67415 7.75716 3.58301 7.66602C3.49186 7.57487 3.44629 7.46094 3.44629 7.32422C3.44629 7.19206 3.49186 7.0804 3.58301 6.98926C3.67415 6.89811 3.78809 6.85254 3.9248 6.85254H7.02148V2.7168C7.02148 2.58464 7.06706 2.47298 7.1582 2.38184C7.24935 2.29069 7.361 2.24512 7.49316 2.24512C7.62988 2.24512 7.74382 2.29069 7.83496 2.38184C7.92611 2.47298 7.97168 2.58464 7.97168 2.7168V7.32422C7.97168 7.46094 7.92611 7.57487 7.83496 7.66602C7.74382 7.75716 7.62988 7.80273 7.49316 7.80273H3.9248ZM7.5 14.0371C6.54753 14.0371 5.64974 13.8548 4.80664 13.4902C3.9681 13.1257 3.22754 12.6221 2.58496 11.9795C1.94238 11.3369 1.4388 10.5964 1.07422 9.75781C0.709635 8.91471 0.527344 8.01693 0.527344 7.06445C0.527344 6.11198 0.709635 5.21647 1.07422 4.37793C1.4388 3.53483 1.9401 2.79199 2.57812 2.14941C3.2207 1.50684 3.96126 1.00326 4.7998 0.638672C5.6429 0.274089 6.54069 0.0917969 7.49316 0.0917969C8.44564 0.0917969 9.34342 0.274089 10.1865 0.638672C11.0296 1.00326 11.7725 1.50684 12.415 2.14941C13.0576 2.79199 13.5612 3.53483 13.9258 4.37793C14.2904 5.21647 14.4727 6.11198 14.4727 7.06445C14.4727 8.01693 14.2904 8.91471 13.9258 9.75781C13.5612 10.5964 13.0576 11.3369 12.415 11.9795C11.7725 12.6221 11.0296 13.1257 10.1865 13.4902C9.34798 13.8548 8.45247 14.0371 7.5 14.0371ZM7.5 12.875C8.30664 12.875 9.06087 12.7246 9.7627 12.4238C10.4645 12.123 11.082 11.7083 11.6152 11.1797C12.1484 10.6465 12.5632 10.029 12.8594 9.32715C13.1602 8.62533 13.3105 7.87109 13.3105 7.06445C13.3105 6.25781 13.1602 5.50358 12.8594 4.80176C12.5586 4.09993 12.1416 3.48242 11.6084 2.94922C11.0798 2.41602 10.4622 2.0013 9.75586 1.70508C9.05404 1.4043 8.2998 1.25391 7.49316 1.25391C6.68652 1.25391 5.93229 1.4043 5.23047 1.70508C4.52865 2.0013 3.91341 2.41602 3.38477 2.94922C2.85612 3.48242 2.44141 4.09993 2.14062 4.80176C1.8444 5.50358 1.69629 6.25781 1.69629 7.06445C1.69629 7.87109 1.8444 8.62533 2.14062 9.32715C2.44141 10.029 2.85612 10.6465 3.38477 11.1797C3.91797 11.7083 4.53548 12.123 5.2373 12.4238C5.93913 12.7246 6.69336 12.875 7.5 12.875Z" fill="#6F6F6F"/>
</svg>
