<svg width="322" height="288" viewBox="0 0 322 288" fill="none" xmlns="http://www.w3.org/2000/svg">
<g filter="url(#filter0_d_745_844)">
<path fill-rule="evenodd" clip-rule="evenodd" d="M210.711 90.1307C199.999 73.8279 181.549 63.064 160.585 63.064C139.737 63.064 121.375 73.7089 110.638 89.86C86.2314 97.4425 68.5084 120.204 68.5084 147.105C68.5084 149.644 68.6664 152.147 68.973 154.603C62.3652 153.73 55.6124 152.361 50.2903 151.15C45.0931 149.968 40 153.87 40 159.2C40 162.666 42.2131 165.73 45.5637 166.615C51.6242 168.215 62.0115 170.531 73.5737 171.256C75.4538 175.521 77.8166 179.526 80.593 183.2C81.6189 215.401 108.045 241.19 140.495 241.19C147.542 241.19 154.304 239.974 160.585 237.74C166.865 239.974 173.627 241.19 180.674 241.19C213.437 241.19 240.06 214.9 240.599 182.266C243.07 178.86 245.192 175.184 246.911 171.29C258.881 170.601 269.901 168.205 276.256 166.578C279.636 165.712 281.89 162.634 281.89 159.144C281.89 153.839 276.821 149.953 271.647 151.123C265.96 152.41 258.616 153.88 251.509 154.747C251.827 152.244 251.991 149.694 251.991 147.105C251.991 120.517 234.678 97.9725 210.711 90.1307Z" fill="white"/>
</g>
<circle cx="143.7" cy="157.067" r="4.35269" fill="black"/>
<circle cx="175.844" cy="157.067" r="4.35269" fill="black"/>
<path d="M165.859 162.09C168.038 162.09 169.873 163.921 169.039 165.934V165.934C168.534 167.152 167.794 168.26 166.862 169.192C165.929 170.125 164.822 170.865 163.603 171.37C162.384 171.874 161.078 172.134 159.759 172.134C158.44 172.134 157.134 171.874 155.915 171.37C154.696 170.865 153.589 170.125 152.656 169.192C151.724 168.26 150.984 167.152 150.479 165.934V165.934C149.645 163.921 151.48 162.09 153.659 162.09L159.759 162.09H165.859Z" fill="black"/>
<path d="M110.556 5.43527C111.178 3.64408 113.711 3.64408 114.334 5.43527L116.15 10.6594C116.279 11.0315 116.515 11.3571 116.829 11.5954L121.848 15.4073C122.902 16.2077 122.902 17.7923 121.848 18.5927L116.829 22.4046C116.515 22.6429 116.279 22.9685 116.15 23.3406L114.334 28.5647C113.711 30.3559 111.178 30.3559 110.556 28.5647L108.74 23.3406C108.611 22.9685 108.374 22.6429 108.06 22.4046L103.042 18.5927C101.988 17.7923 101.988 16.2077 103.042 15.4073L108.06 11.5954C108.374 11.3571 108.611 11.0315 108.74 10.6594L110.556 5.43527Z" fill="#9BDDA4"/>
<path d="M50.5573 91.388C51.1826 89.603 53.707 89.603 54.3324 91.388L54.7902 92.6949C54.9207 93.0676 55.1587 93.3933 55.4741 93.6309L57.8253 95.4027C58.8871 96.2029 58.8871 97.7971 57.8253 98.5973L55.4741 100.369C55.1587 100.607 54.9207 100.932 54.7902 101.305L54.3324 102.612C53.707 104.397 51.1826 104.397 50.5573 102.612L50.0995 101.305C49.9689 100.932 49.731 100.607 49.4156 100.369L47.0644 98.5973C46.0026 97.7971 46.0026 96.2029 47.0644 95.4027L49.4156 93.6309C49.731 93.3933 49.9689 93.0676 50.0995 92.6949L50.5573 91.388Z" fill="#9BDDA4"/>
<path d="M230.562 51.258C231.195 49.4904 233.695 49.4904 234.328 51.258L236.143 56.3258C236.277 56.6999 236.519 57.0256 236.839 57.2614L241.761 60.8902C242.845 61.6895 242.845 63.3105 241.761 64.1098L236.839 67.7386C236.519 67.9744 236.277 68.3001 236.143 68.6742L234.328 73.742C233.695 75.5096 231.195 75.5096 230.562 73.742L228.747 68.6742C228.613 68.3001 228.371 67.9744 228.051 67.7386L223.129 64.1098C222.044 63.3105 222.044 61.6895 223.129 60.8902L228.051 57.2614C228.371 57.0256 228.613 56.6999 228.747 56.3258L230.562 51.258Z" fill="#9BDDA4"/>
<defs>
<filter id="filter0_d_745_844" x="0" y="29.064" width="321.89" height="258.126" filterUnits="userSpaceOnUse" color-interpolation-filters="sRGB">
<feFlood flood-opacity="0" result="BackgroundImageFix"/>
<feColorMatrix in="SourceAlpha" type="matrix" values="0 0 0 0 0 0 0 0 0 0 0 0 0 0 0 0 0 0 127 0" result="hardAlpha"/>
<feOffset dy="6"/>
<feGaussianBlur stdDeviation="20"/>
<feComposite in2="hardAlpha" operator="out"/>
<feColorMatrix type="matrix" values="0 0 0 0 0.504167 0 0 0 0 0.504167 0 0 0 0 0.504167 0 0 0 0.25 0"/>
<feBlend mode="normal" in2="BackgroundImageFix" result="effect1_dropShadow_745_844"/>
<feBlend mode="normal" in="SourceGraphic" in2="effect1_dropShadow_745_844" result="shape"/>
</filter>
</defs>
</svg>
