<svg width="30" height="30" viewBox="0 0 30 30" fill="none" xmlns="http://www.w3.org/2000/svg">
<mask id="path-1-inside-1_2098_6185" fill="white">
<path fill-rule="evenodd" clip-rule="evenodd" d="M22.7409 4.10811C21.0684 1.62974 18.2342 0 15.0193 0C11.8096 0 8.97927 1.62453 7.30574 4.09622C3.12736 5.0471 0 8.91089 0 13.5327C0 15.8387 0.778494 17.956 2.0776 19.6169C2.07463 19.7136 2.07313 19.8107 2.07313 19.9081C2.07313 25.0491 6.24078 29.2168 11.3818 29.2168C12.665 29.2168 13.8875 28.9572 14.9997 28.4876C16.1119 28.9572 17.3344 29.2168 18.6175 29.2168C23.7586 29.2168 27.9262 25.0491 27.9262 19.9081C27.9262 19.8313 27.9253 19.7547 27.9235 19.6783C29.2215 18.011 29.9992 15.8861 29.9992 13.5719C29.9992 8.94888 26.8955 5.08127 22.7409 4.10811Z"/>
</mask>
<path d="M22.7409 4.10811L21.0831 5.22687L21.5216 5.87663L22.2848 6.0554L22.7409 4.10811ZM7.30574 4.09622L7.74954 6.04636L8.51926 5.87119L8.96185 5.21753L7.30574 4.09622ZM2.0776 19.6169L4.07666 19.6783L4.09889 18.9549L3.65296 18.3848L2.0776 19.6169ZM14.9997 28.4876L15.7776 26.6451L14.9997 26.3166L14.2218 26.6451L14.9997 28.4876ZM27.9235 19.6783L26.3453 18.4497L25.9068 19.0131L25.924 19.7268L27.9235 19.6783ZM24.3988 2.98935C22.3703 -0.0164936 18.9268 -2 15.0193 -2V2C17.5416 2 19.7666 3.27597 21.0831 5.22687L24.3988 2.98935ZM15.0193 -2C11.1181 -2 7.67935 -0.0228308 5.64964 2.97491L8.96185 5.21753C10.2792 3.27188 12.5011 2 15.0193 2V-2ZM6.86195 2.14608C1.74564 3.31041 -2 8.00593 -2 13.5327H2C2 9.81586 4.50909 6.78379 7.74954 6.04636L6.86195 2.14608ZM-2 13.5327C-2 16.2944 -1.06639 18.8436 0.502246 20.8491L3.65296 18.3848C2.62337 17.0684 2 15.383 2 13.5327H-2ZM0.0785467 19.5555C0.0749484 19.6726 0.0731339 19.7901 0.0731339 19.9081H4.07313C4.07313 19.8312 4.07432 19.7546 4.07666 19.6783L0.0785467 19.5555ZM0.0731339 19.9081C0.0731339 26.1537 5.13621 31.2168 11.3818 31.2168V27.2168C7.34535 27.2168 4.07313 23.9446 4.07313 19.9081H0.0731339ZM11.3818 31.2168C12.937 31.2168 14.4237 30.9017 15.7776 30.3301L14.2218 26.6451C13.3513 27.0126 12.393 27.2168 11.3818 27.2168V31.2168ZM14.2218 30.3301C15.5757 30.9017 17.0624 31.2168 18.6175 31.2168V27.2168C17.6064 27.2168 16.6481 27.0126 15.7776 26.6451L14.2218 30.3301ZM18.6175 31.2168C24.8632 31.2168 29.9262 26.1537 29.9262 19.9081H25.9262C25.9262 23.9446 22.654 27.2168 18.6175 27.2168V31.2168ZM29.9262 19.9081C29.9262 19.8151 29.9251 19.7224 29.9229 19.6299L25.924 19.7268C25.9255 19.787 25.9262 19.8474 25.9262 19.9081H29.9262ZM27.9992 13.5719C27.9992 15.4327 27.3751 17.127 26.3453 18.4497L29.5016 20.9069C31.0679 18.895 31.9992 16.3394 31.9992 13.5719H27.9992ZM22.2848 6.0554C25.5033 6.8093 27.9992 9.84476 27.9992 13.5719H31.9992C31.9992 8.05299 28.2877 3.35324 23.1971 2.16082L22.2848 6.0554Z" fill="#60BF6C" mask="url(#path-1-inside-1_2098_6185)"/>
</svg>
