<svg width="200" height="200" viewBox="0 0 200 200" fill="none" xmlns="http://www.w3.org/2000/svg">
<g clip-path="url(#clip0_960_908)">
<path d="M121.868 200C114.359 200 107.004 198.686 100 196.084C92.9912 198.68 85.6407 200 78.1324 200C61.0074 200 44.8604 193.157 32.6726 180.735C20.6215 168.455 13.7967 152.107 13.4182 134.657C4.63747 122.887 0 108.804 0 93.8953C0 78.9865 4.56911 65.1206 13.2184 53.4C21.468 42.217 33.1248 33.8692 46.0855 29.8447C58.1419 11.1449 78.2533 0 100 0C121.747 0 141.858 11.1449 153.915 29.8447C166.88 33.8692 178.532 42.217 186.782 53.4C195.431 65.1206 200 79.1223 200 93.8953C200 108.668 195.363 122.887 186.587 134.657C186.209 152.107 179.384 168.45 167.333 180.735C155.145 193.162 138.998 200 121.873 200H121.868ZM100 192.614L100.547 192.82C107.366 195.421 114.543 196.736 121.868 196.736C138.162 196.736 153.515 190.229 165.114 178.411C176.697 166.603 183.206 150.853 183.438 134.059V133.511L183.774 133.076C192.323 121.796 196.845 108.25 196.845 93.8899C196.845 79.5297 192.497 66.5164 184.274 55.3661C176.313 44.5742 165.019 36.5577 152.474 32.7938L151.911 32.6255L151.59 32.1204C140.16 14.0398 120.869 3.24788 100 3.24788C79.1314 3.24788 59.8402 14.0398 48.4095 32.1204L48.0887 32.6255L47.5262 32.7938C34.9808 36.5577 23.6868 44.5742 15.7264 55.3661C7.50302 66.511 3.15474 79.8338 3.15474 93.8899C3.15474 107.946 7.67128 121.796 16.2259 133.076L16.5519 133.511V134.059C16.7937 150.853 23.303 166.609 34.8862 178.411C46.4798 190.229 61.8382 196.736 78.1324 196.736C85.4619 196.736 92.6337 195.416 99.4532 192.82L100 192.614Z" fill="#9BDDA4"/>
<path d="M82.5017 110.45C85.118 110.45 87.239 108.259 87.239 105.556C87.239 102.854 85.118 100.663 82.5017 100.663C79.8853 100.663 77.7643 102.854 77.7643 105.556C77.7643 108.259 79.8853 110.45 82.5017 110.45Z" fill="#119822"/>
<path d="M117.493 110.45C120.109 110.45 122.23 108.259 122.23 105.556C122.23 102.854 120.109 100.663 117.493 100.663C114.877 100.663 112.756 102.854 112.756 105.556C112.756 108.259 114.877 110.45 117.493 110.45Z" fill="#119822"/>
<path d="M106.63 111.205C109.001 111.205 110.999 113.263 110.09 115.528C109.538 116.897 108.733 118.146 107.718 119.194C106.704 120.242 105.5 121.073 104.169 121.643C102.844 122.208 101.42 122.502 99.9841 122.502C98.5487 122.502 97.1238 122.208 95.7988 121.643C94.4738 121.073 93.2645 120.242 92.2498 119.194C91.235 118.146 90.4305 116.902 89.8784 115.528C88.9741 113.263 90.9668 111.205 93.3381 111.205H106.62H106.63Z" fill="#119822"/>
</g>
<defs>
<clipPath id="clip0_960_908">
<rect width="200" height="200" fill="white"/>
</clipPath>
</defs>
</svg>
