<svg width="200" height="200" viewBox="0 0 200 200" fill="none" xmlns="http://www.w3.org/2000/svg">
<g clip-path="url(#clip0_960_900)">
<path d="M121.868 200C114.359 200 107.004 198.686 100 196.084C92.9912 198.68 85.6407 200 78.1324 200C61.0074 200 44.8604 193.157 32.6726 180.735C20.6215 168.455 13.7967 152.107 13.4182 134.657C4.63747 122.887 0 108.804 0 93.8953C0 78.9865 4.56911 65.1206 13.2184 53.4C21.468 42.217 33.1248 33.8692 46.0855 29.8447C58.1419 11.1449 78.2533 0 100 0C121.747 0 141.858 11.1449 153.915 29.8447C166.88 33.8692 178.532 42.217 186.782 53.4C195.431 65.1206 200 79.1223 200 93.8953C200 108.668 195.363 122.887 186.587 134.657C186.209 152.107 179.384 168.45 167.333 180.735C155.145 193.162 138.998 200 121.873 200H121.868ZM100 192.614L100.547 192.82C107.366 195.421 114.543 196.736 121.868 196.736C138.162 196.736 153.515 190.229 165.114 178.411C176.697 166.603 183.206 150.853 183.438 134.059V133.511L183.774 133.076C192.323 121.796 196.845 108.25 196.845 93.8899C196.845 79.5297 192.497 66.5164 184.274 55.3661C176.313 44.5742 165.019 36.5577 152.474 32.7938L151.911 32.6255L151.59 32.1204C140.16 14.0398 120.869 3.24788 100 3.24788C79.1314 3.24788 59.8402 14.0398 48.4095 32.1204L48.0887 32.6255L47.5262 32.7938C34.9808 36.5577 23.6868 44.5742 15.7264 55.3661C7.50302 66.511 3.15474 79.8338 3.15474 93.8899C3.15474 107.946 7.67128 121.796 16.2259 133.076L16.5519 133.511V134.059C16.7937 150.853 23.303 166.609 34.8862 178.411C46.4798 190.229 61.8382 196.736 78.1324 196.736C85.4619 196.736 92.6337 195.416 99.4532 192.82L100 192.614Z" fill="#9BDDA4"/>
<path d="M82.5018 108.255C85.1182 108.255 87.2391 106.065 87.2391 103.362C87.2391 100.659 85.1182 98.4684 82.5018 98.4684C79.8854 98.4684 77.7644 100.659 77.7644 103.362C77.7644 106.065 79.8854 108.255 82.5018 108.255Z" fill="#119822"/>
<path d="M117.493 108.255C120.109 108.255 122.23 106.065 122.23 103.362C122.23 100.659 120.109 98.4684 117.493 98.4684C114.877 98.4684 112.756 100.659 112.756 103.362C112.756 106.065 114.877 108.255 117.493 108.255Z" fill="#119822"/>
<path d="M95.7674 109.793C94.5791 109.793 93.5801 108.766 93.9955 107.615C94.332 106.686 94.8788 105.833 95.6096 105.127C96.8873 103.889 98.6171 103.194 100.426 103.194C102.235 103.194 103.964 103.889 105.242 105.127C105.973 105.833 106.52 106.686 106.856 107.615C107.272 108.766 106.273 109.793 105.084 109.793H104.795C103.765 109.793 102.95 108.804 102.198 108.076C101.73 107.62 101.094 107.365 100.426 107.365C99.7581 107.365 99.1272 107.62 98.654 108.076C97.9021 108.804 97.0871 109.793 96.0565 109.793H95.7674Z" fill="#119822"/>
</g>
<defs>
<clipPath id="clip0_960_900">
<rect width="200" height="200" fill="white"/>
</clipPath>
</defs>
</svg>
